<?xml version="1.0" encoding="UTF-8"?><svg id="ILL-FG" xmlns="http://www.w3.org/2000/svg" viewBox="0 0 595.43 478.83"><defs><style>.cls-1{fill:#ff984e;}.cls-2{fill:#ff6c4e;}.cls-3{fill:#ffc195;}.cls-4{fill:#008c46;}.cls-5{fill:#00bf5f;}.cls-6{fill:#fcf7f1;}.cls-7{fill:#00ec76;}.cls-8{fill:#ff5d4e;}.cls-9{fill:#fff;}.cls-10{fill:#00d86c;}.cls-11{fill:#ffd6b8;}.cls-12{fill:#00763b;}.cls-13{fill:#fed2a4;}</style></defs><path class="cls-2" d="M448.56,249.84l-4.77-23.92-39.2-15.68c-6.31-2.52-11.27-7.63-13.62-14l-3.13-8.49,83.77,13.89-26.18-36.49c-38.96-51.52-99.81-81.79-164.4-81.79h-52.6c-1.06,0-1.95.41-2.6,1.05-8.24,2.72-14.2,10.46-14.2,19.62,0,11.41,9.25,20.66,20.66,20.66h25.63l25.14,27.3c8.44,9.17,13.13,21.17,13.13,33.63v60.98l49.68,65.7c8.35,11.04,23.97,13.6,35.3,5.66,2.61-1.83,5.1-3.86,7.43-6.09l60-57.14.76-1.76c-.31-1.02-.59-2.05-.81-3.11h0Z"/><path class="cls-8" d="M447.3,250.09l-4.63-23.24-3.81-1.52-50.25,47.86c-2.34,2.23-4.82,4.26-7.44,6.09-11.33,7.95-26.95,5.38-35.3-5.66l-49.68-65.7v38.66l49.68,65.7c8.35,11.04,23.97,13.6,35.3,5.66,2.61-1.83,5.1-3.86,7.44-6.09l60-57.14c-.54-1.49-.99-3.02-1.31-4.61Z"/><path class="cls-4" d="M197.14,208.8l-11.67-157.33c-2.52-18.53,9.82-35.81,28.15-39.46l7.23-1.44c6.88-1.37,13.63,2.85,15.42,9.63l31.29,188.59h-70.42Z"/><path class="cls-12" d="M192.09,140.79l6.54-.5c4.43-.34,7.74-4.2,7.4-8.63h0c-.34-4.43-4.2-7.74-8.63-7.4l-6.5.5,1.19,16.03Z"/><path class="cls-12" d="M193.88,164.87l6.54-.5c4.43-.34,7.74-4.2,7.4-8.63h0c-.34-4.43-4.2-7.74-8.63-7.4l-6.5.5,1.19,16.03Z"/><path class="cls-12" d="M188.53,92.77l6.54-.5c4.43-.34,7.74-4.2,7.4-8.63h0c-.34-4.43-4.2-7.74-8.63-7.4l-6.5.5,1.19,16.03Z"/><path class="cls-12" d="M190.3,116.71l6.54-.5c4.43-.34,7.74-4.2,7.4-8.63h0c-.34-4.43-4.2-7.74-8.63-7.4l-6.5.5,1.19,16.03Z"/><path class="cls-12" d="M195.67,188.96l6.54-.5c4.43-.34,7.74-4.2,7.4-8.63h0c-.34-4.43-4.2-7.74-8.63-7.4l-6.5.5,1.19,16.03Z"/><path class="cls-12" d="M197.16,208.8l-.89-11.94,6.5-.5c4.43-.34,8.29,2.97,8.63,7.4h0c.14,1.85-.35,3.6-1.3,5.04h-12.94Z"/><path class="cls-9" d="M227.28,36.1c-.9,2.29-1.38,4.79-1.33,7.41l.14,7.88c.19,10.65,8.97,19.14,19.62,18.95,8.04-.14,14.84-5.18,17.62-12.22.9-2.29,1.38-4.79,1.33-7.4l-.14-7.88c-.19-10.65-8.97-19.14-19.62-18.95-8.04.14-14.84,5.18-17.62,12.22Z"/><rect x="245.3" y="35.38" width="12.86" height="23.23" rx="6.43" ry="6.43" transform="translate(504.23 89.61) rotate(179)"/><path class="cls-5" d="M289.4,31.82c-7.35.13-13.2,6.18-13.07,13.53.01.81.1,1.6.26,2.37l1.76,16.31c.65,6,5.77,10.51,11.8,10.41,6.02-.11,10.96-4.78,11.41-10.79l1.2-16.39c.12-.77.19-1.57.17-2.38-.13-7.35-6.19-13.2-13.53-13.07Z"/><path class="cls-6" d="M366.55,138.08c.07-2.21-2.91-2.99-3.93-1.02l-4.92,9.5,8.54,2.21.32-10.7Z"/><path class="cls-6" d="M351.95,134.29l-4.92,9.5,8.54,2.21.32-10.7c.07-2.21-2.91-2.99-3.93-1.02Z"/><path class="cls-6" d="M341.28,131.53l-4.92,9.5,8.54,2.21.32-10.7c.07-2.21-2.91-2.99-3.93-1.02Z"/><path class="cls-6" d="M330.61,128.76l-4.92,9.5,8.54,2.21.32-10.7c.07-2.21-2.91-2.99-3.93-1.02Z"/><path class="cls-6" d="M319.94,125.99l-4.92,9.5,8.54,2.21.32-10.7c.07-2.21-2.91-2.99-3.93-1.02Z"/><path class="cls-6" d="M309.27,123.23l-4.92,9.5,8.54,2.21.32-10.7c.07-2.21-2.91-2.99-3.93-1.02Z"/><path class="cls-6" d="M298.6,120.46l-4.92,9.5,8.54,2.21.32-10.7c.07-2.21-2.91-2.99-3.93-1.02Z"/><path class="cls-6" d="M287.94,117.69l-4.92,9.5,8.54,2.21.32-10.7c.07-2.21-2.91-2.99-3.93-1.02Z"/><path class="cls-5" d="M369.08,155.44c-2.3,8.87-11.36,14.2-20.23,11.9l-108.74-28.2s-.08-.02-.12-.03c-5.62-1.42-10.69-5.01-13.87-10.4l-25.17-42.8c-6.3-10.71-2.72-24.49,7.99-30.79h0l67.68,68.5c1.53,1.55,3.45,2.65,5.55,3.2l85.53,22.18c1.58.41,2.54,2.03,2.12,3.61l-.74,2.84Z"/><path class="cls-6" d="M363.07,107.45l1.66,15.38c.28,2.64,3.95,3.08,4.84.57l5.18-14.59-11.68-1.35Z"/><path class="cls-6" d="M267.11,111.5c.28,2.64,3.95,3.08,4.84.57l5.18-14.59-11.68-1.35,1.66,15.38Z"/><path class="cls-6" d="M281.06,113.12c.28,2.64,3.95,3.08,4.84.57l5.18-14.59-11.68-1.35,1.66,15.38Z"/><path class="cls-6" d="M295,114.74c.28,2.64,3.95,3.08,4.84.57l5.18-14.59-11.68-1.35,1.66,15.38Z"/><path class="cls-6" d="M308.94,116.35c.28,2.64,3.95,3.08,4.84.57l5.18-14.59-11.68-1.35,1.66,15.38Z"/><path class="cls-6" d="M322.89,117.97c.28,2.64,3.95,3.08,4.84.57l5.18-14.59-11.68-1.35,1.66,15.38Z"/><path class="cls-6" d="M336.83,119.59c.28,2.64,3.95,3.08,4.84.57l5.18-14.59-11.68-1.35,1.66,15.38Z"/><path class="cls-6" d="M350.78,121.2c.28,2.64,3.95,3.08,4.84.57l5.18-14.59-11.68-1.35,1.66,15.38Z"/><path class="cls-5" d="M332.84,46.34c-9.64-1.74-18.87,4.66-20.61,14.29-1.74,9.64,4.66,18.86,14.29,20.61,1.06.19,2.12.28,3.16.28l21.79,1.94c8.01.71,15.25-4.8,16.68-12.72,1.43-7.9-3.4-15.58-11.14-17.72l-21.12-5.83c-.98-.36-2-.65-3.06-.85Z"/><path class="cls-10" d="M260.65,2.16l98.26,24.08c25.89,6.35,42.37,31.74,37.63,57.96l-1.87,10.34c-1.78,9.84-10.91,16.59-20.83,15.41l-129.9-15.35c-1.93-.11-3.86-.34-5.81-.69-25.72-4.65-42.8-29.28-38.15-54.99C204.64,13.19,229.26-3.89,254.98.76c1.95.35,3.84.82,5.68,1.39ZM226.08,51.38c.19,10.65,8.97,19.14,19.62,18.95,8.04-.14,14.84-5.18,17.62-12.22.9-2.29,1.38-4.79,1.33-7.4l-.14-7.88c-.19-10.65-8.97-19.14-19.62-18.95-8.04.14-14.84,5.18-17.62,12.22-.9,2.29-1.38,4.79-1.33,7.41l.14,7.88ZM276.59,47.71l1.76,16.31c.65,6,5.77,10.51,11.8,10.41,6.02-.11,10.96-4.78,11.41-10.79l1.2-16.39c.12-.77.19-1.57.17-2.38-.13-7.35-6.19-13.2-13.53-13.07-7.35.13-13.2,6.18-13.07,13.53.01.81.1,1.6.26,2.37ZM326.52,81.24c1.06.19,2.12.28,3.16.28l21.79,1.94c8.01.71,15.25-4.8,16.68-12.72,1.43-7.9-3.4-15.58-11.14-17.72l-21.12-5.83c-.98-.36-2-.65-3.06-.85-9.64-1.74-18.87,4.66-20.61,14.29-1.74,9.64,4.66,18.86,14.29,20.61Z"/><path class="cls-7" d="M225.23,13.96c-.73-.19-1.4-.66-1.81-1.36-.83-1.41-.37-3.23,1.05-4.07,8.8-5.21,19.2-7.07,29.28-5.25,1.68.3,3.37.72,5.02,1.23l100.15,24.54s.03,0,.04,0c1.57.41,2.53,2,2.14,3.58-.39,1.59-2,2.57-3.59,2.18l-100.23-24.56c-.06-.01-.12-.03-.18-.05-1.45-.45-2.94-.82-4.4-1.08-8.67-1.57-17.62.03-25.2,4.51-.71.42-1.52.51-2.26.32Z"/><path class="cls-12" d="M387.91,74.7l-.63-5.21-.63-5.21c-.31-2.59-2.67-4.44-5.26-4.13-2.59.32-4.44,2.67-4.13,5.26l.63,5.21.63,5.21c.31,2.59,2.67,4.44,5.26,4.13,2.59-.32,4.44-2.67,4.13-5.26Z"/><path class="cls-2" d="M114.78,412.52l-26.76-20.21-57.03,57.03c-4.71,4.71-.07,12.6,6.33,10.77l41.77-11.91,35.68-35.68Z"/><path class="cls-13" d="M66.5,302.08l-36.51,28.86h260.15c2.95,0,5.61-1.64,6.93-4.29,1.32-2.64,1.03-5.75-.74-8.11l-95-126.15c-30.3-40.06-76.48-65.22-126.71-69.01h-28.7s26.32,28.58,26.32,28.58c8.44,9.17,13.12,21.17,13.12,33.63v77.53c0,15.19-6.95,29.54-18.86,38.95h0Z"/><path class="cls-11" d="M66.5,302.08l-36.51,28.86h260.15c2.95,0,5.61-1.64,6.93-4.29,1.32-2.64,1.03-5.75-.74-8.11l-95-126.15c-30.3-40.06-76.48-65.22-126.71-69.01h-28.7s26.32,28.58,26.32,28.58c8.44,9.17,13.12,21.17,13.12,33.63v77.53c0,15.19-6.95,29.54-18.86,38.95h0Z"/><path class="cls-3" d="M296.33,318.54l-95-126.15c-30.3-40.06-76.48-65.22-126.71-69.01h-28.7s23.46,25.48,23.46,25.48c38.99,9.49,73.86,32.13,98.35,64.51l88.54,117.57h33.88c2.95,0,5.61-1.64,6.93-4.29,1.32-2.64,1.04-5.75-.74-8.11Z"/><path class="cls-1" d="M253.14,261.19l-169.79,15.92c-2.22,7.57-6.24,14.53-11.73,20.29l194.81-18.57-13.28-17.63Z"/><path class="cls-1" d="M217.96,214.48l-133.59-38.71c.65,3.21.99,6.5.99,9.82v9.77l145.54,42.4c.88.26,1.76.38,2.63.38.7,0,1.39-.11,2.06-.26l-17.63-23.4Z"/><path class="cls-1" d="M497.2,274.77h-18.25,0c-12.77,0-24.06-7.89-28.72-19.4l-1.63-.67-60,57.14c-2.34,2.23-4.82,4.26-7.44,6.09-11.33,7.95-26.95,5.38-35.3-5.66l-111.27-147.14c-38.96-51.52-99.81-81.79-164.4-81.79h-17.96s-.02,0-.03,0h-31.56s-.02,0-.03,0h-3.03c-.85,0-1.59.27-2.18.7-8.87,2.32-15.42,10.37-15.42,19.97,0,11.41,9.25,20.66,20.66,20.66h53.86c49.41,3.73,95.71,28.74,125.78,68.5l95,126.15c3.2,4.25.17,10.34-5.16,10.34H67.55s0,0,0,0H15.5c-8.56,0-15.5,6.94-15.5,15.5s6.94,15.5,15.5,15.5h28.46l68.86,52-55.13,55.13c-4.76,4.76.04,12.73,6.48,10.73l123.47-38.33c3.1-.96,6.32-1.45,9.57-1.45h85.96c34.06,0,66.74-13.46,90.92-37.45l126.23-125.22-3.12-1.29Z"/><path class="cls-2" d="M464.78,272.76l-103.58,102.75c-24.18,23.99-56.86,37.45-90.92,37.45h-85.96c-3.24,0-6.47.49-9.57,1.45l-92.36,28.67-24.7,24.7c-4.76,4.76.04,12.73,6.48,10.73l123.47-38.33c3.1-.96,6.32-1.45,9.57-1.45h85.96c34.06,0,66.74-13.46,90.92-37.45l126.24-125.22h-21.37c-5.05,0-9.87-1.19-14.17-3.3h0Z"/><path class="cls-3" d="M578.87,235.72c-.33-.13-.66-.25-1-.37l-137.38-45.36-34.59-11.69c-8.99-3.04-18.74,1.78-21.78,10.77-3.04,8.99,1.78,18.74,10.77,21.78l47.8,16.16,4.6,23.07c3.01,15.1,16.26,25.97,31.65,25.97h96.13c11.24,0,20.35-9.11,20.35-20.35,0-9.94-7.14-18.21-16.57-19.99Z"/><path class="cls-1" d="M593.96,263.29c.94-2.34,1.47-4.9,1.47-7.58,0-10.26-7.6-18.73-17.48-20.13l-.08-.23-171.96-57.05v.04s-.13-.04-.13-.04c-8.99-3.04-18.74,1.78-21.78,10.77-.39,1.14-.64,2.3-.78,3.45l23.6,7.79,145.89,49.09,41.25,13.88Z"/><path class="cls-9" d="M483.65,231.32c-.62,1.54-.96,3.22-.95,4.98l.04,5.3c.05,7.17,5.91,12.94,13.08,12.89,5.41-.04,10.02-3.39,11.94-8.11.62-1.53.96-3.21.95-4.97l-.04-5.3c-.05-7.17-5.91-12.94-13.08-12.88-5.41.04-10.02,3.39-11.94,8.11Z"/><rect x="495.71" y="231" width="8.66" height="15.64" rx="4.33" ry="4.33" transform="translate(1001.87 473.84) rotate(179.57)"/></svg>