<?xml version="1.0" encoding="UTF-8"?><svg id="ILL-BG" xmlns="http://www.w3.org/2000/svg" viewBox="0 0 373.85 265.65"><defs><style>.cls-1{fill:#008c46;}.cls-2{fill:#00bf5f;}.cls-3{fill:#fcf7f1;}.cls-4{fill:#00ec76;}.cls-5{fill:#fff;}.cls-6{fill:#00d86c;}.cls-7{fill:#00763b;}</style></defs><path d="M314.48,218.53c0,2.14-1.59,5.23-3.77,5.51-17.16,2.22-32.32,16.74-30.18,33.9.06.47.39,2.57-1.01,3.17-1.03.44-2.32.3-2.63-2.07-2.83-21.88,10.82-43.22,32.7-46.05,2.37-.31,4.53,2.6,4.84,4.97.02.19.04.37.04.56Z"/><rect class="cls-7" x="326.51" y="184.05" width="22.25" height="66.76" rx="11.13" ry="11.13" transform="translate(120.21 555.06) rotate(-90)"/><path d="M356.17,191.37c-4.28,0-10.47-3.18-11.03-7.54-4.43-34.31-33.47-64.65-67.8-60.36-.93.12-5.15.78-6.35-2.01-.88-2.06-.6-4.64,4.13-5.25,43.76-5.66,86.44,21.64,92.09,65.4.61,4.73-5.2,9.07-9.93,9.68-.38.05-.75.07-1.12.07Z"/><path d="M298.15,208.94c-.82,1.98-3.47,4.23-5.59,3.65-16.7-4.52-36.27,3.09-40.85,19.77-.12.45-.63,2.53-2.14,2.55-1.12.01-2.26-.61-1.64-2.91,5.76-21.3,26.54-35.79,47.83-30.03,2.3.62,3.19,4.14,2.57,6.44-.05.18-.11.36-.18.53Z"/><rect class="cls-1" x="341.34" y="176.63" width="29.67" height="59.35" rx="14.84" ry="14.84"/><rect class="cls-2" x="311.67" y="206.3" width="59.35" height="59.35" rx="16" ry="16"/><rect class="cls-2" x="311.67" y="172.92" width="22.25" height="66.76" rx="11.13" ry="11.13" transform="translate(116.5 529.1) rotate(-90)"/><path class="cls-1" d="M20.13,265.65L5.42,67.45c-3.17-23.34,12.37-45.12,35.47-49.71l9.11-1.81c8.66-1.72,17.17,3.59,19.42,12.13l39.42,237.59H20.13Z"/><path class="cls-7" d="M13.77,179.97l8.24-.63c5.58-.43,9.75-5.3,9.32-10.87h0c-.43-5.58-5.3-9.75-10.87-9.32l-8.19.63,1.5,20.2Z"/><path class="cls-7" d="M16.03,210.31l8.24-.63c5.58-.43,9.75-5.3,9.32-10.87h0c-.43-5.58-5.3-9.75-10.87-9.32l-8.19.63,1.5,20.2Z"/><path class="cls-7" d="M9.28,119.47l8.24-.63c5.58-.43,9.75-5.3,9.32-10.87h0c-.43-5.58-5.3-9.75-10.87-9.32l-8.19.63,1.5,20.2Z"/><path class="cls-7" d="M11.52,149.64l8.24-.63c5.58-.43,9.75-5.3,9.32-10.87h0c-.43-5.58-5.3-9.75-10.87-9.32l-8.19.63,1.5,20.2Z"/><path class="cls-3" d="M239.91,135.7c-.62-2.72-4.49-2.72-5.11,0l-3,13.14h11.11l-3-13.14Z"/><path class="cls-3" d="M220.91,135.7l-3,13.14h11.11l-3-13.14c-.62-2.72-4.49-2.72-5.11,0Z"/><path class="cls-3" d="M207.02,135.7l-3,13.14h11.11l-3-13.14c-.62-2.72-4.49-2.72-5.11,0Z"/><path class="cls-3" d="M193.14,135.7l-3,13.14h11.11l-3-13.14c-.62-2.72-4.49-2.72-5.11,0Z"/><path class="cls-3" d="M179.25,135.7l-3,13.14h11.11l-3-13.14c-.62-2.72-4.49-2.72-5.11,0Z"/><path class="cls-3" d="M165.36,135.7l-3,13.14h11.11l-3-13.14c-.62-2.72-4.49-2.72-5.11,0Z"/><path class="cls-3" d="M151.48,135.7l-3,13.14h11.11l-3-13.14c-.62-2.72-4.49-2.72-5.11,0Z"/><path class="cls-3" d="M137.59,135.7l-3,13.14h11.11l-3-13.14c-.62-2.72-4.49-2.72-5.11,0Z"/><path class="cls-2" d="M248.48,156.07c0,11.55-9.36,20.91-20.91,20.91H86.04c-.05,0-.1,0-.15,0-7.31.04-14.62-2.72-20.2-8.3l-44.24-44.24c-11.07-11.07-11.07-29.01,0-40.07h0l104.19,62.13c2.35,1.4,5.04,2.14,7.78,2.14h111.31c2.06,0,3.73,1.67,3.73,3.73v3.69Z"/><path class="cls-3" d="M225.97,99.45l6.88,18.23c1.18,3.13,5.79,2.5,6.09-.84l1.7-19.43-14.67,2.04Z"/><path class="cls-3" d="M110.24,134.74c1.18,3.13,5.79,2.5,6.09-.84l1.7-19.43-14.67,2.04,6.88,18.23Z"/><path class="cls-3" d="M127.76,132.3c1.18,3.13,5.79,2.5,6.09-.84l1.7-19.43-14.67,2.04,6.88,18.23Z"/><path class="cls-3" d="M145.27,129.86c1.18,3.13,5.79,2.5,6.09-.84l1.7-19.43-14.67,2.04,6.88,18.23Z"/><path class="cls-3" d="M162.79,127.43c1.18,3.13,5.79,2.5,6.09-.84l1.7-19.43-14.67,2.04,6.88,18.23Z"/><path class="cls-3" d="M180.3,124.99c1.18,3.13,5.79,2.5,6.09-.84l1.7-19.43-14.67,2.04,6.88,18.23Z"/><path class="cls-3" d="M197.82,122.55c1.18,3.13,5.79,2.5,6.09-.84l1.7-19.43-14.67,2.04,6.88,18.23Z"/><path class="cls-3" d="M215.34,120.11c1.18,3.13,5.79,2.5,6.09-.84l1.7-19.43-14.67,2.04,6.88,18.23Z"/><path class="cls-5" d="M37.82,55.39c-.38,3.08-.17,6.28.72,9.45l2.66,9.56c3.6,12.93,16.99,20.5,29.92,16.91,9.76-2.71,16.46-11.01,17.62-20.48.38-3.07.17-6.28-.72-9.45l-2.66-9.57c-3.6-12.93-16.99-20.5-29.92-16.9-9.76,2.71-16.46,11.01-17.62,20.47Z"/><rect x="62.98" y="46.31" width="16.2" height="29.27" rx="8.1" ry="8.1" transform="translate(155.89 100.62) rotate(164.46)"/><path class="cls-2" d="M169.79,34.48c-12.31.92-21.54,11.65-20.61,23.95.92,12.3,11.65,21.53,23.95,20.61,1.36-.1,2.68-.33,3.95-.66l27.18-4.53c10-1.67,17.07-10.68,16.31-20.79-.75-10.08-9.08-17.93-19.18-18.09l-27.6-.43c-1.3-.13-2.64-.16-4-.06Z"/><path class="cls-2" d="M112.22,30.52c-8.92,2.48-14.14,11.71-11.66,20.63.27.98.63,1.92,1.06,2.81l7.31,19.33c2.69,7.11,10.36,11,17.68,8.96,7.31-2.03,11.86-9.3,10.5-16.76l-3.72-20.36c-.1-.98-.27-1.97-.54-2.95-2.48-8.92-11.72-14.14-20.63-11.66Z"/><path class="cls-6" d="M67.78,3.44l127.44-1.72c33.57-.45,61.7,25.3,64.21,58.78l.99,13.2c.94,12.56-8.05,23.67-20.53,25.39l-163.27,22.36c-2.38.47-4.82.81-7.3,1-32.84,2.46-61.45-22.16-63.91-55C2.96,34.61,27.59,6,60.42,3.54c2.48-.19,4.94-.21,7.36-.1ZM41.19,74.4c3.6,12.93,16.99,20.5,29.92,16.91,9.76-2.71,16.46-11.01,17.62-20.48.38-3.07.17-6.28-.72-9.45l-2.66-9.57c-3.6-12.93-16.99-20.5-29.92-16.9-9.76,2.71-16.46,11.01-17.62,20.47-.38,3.08-.17,6.28.72,9.45l2.66,9.56ZM101.62,53.96l7.31,19.33c2.69,7.11,10.36,11,17.68,8.96,7.31-2.03,11.86-9.3,10.5-16.76l-3.72-20.36c-.1-.98-.27-1.97-.54-2.95-2.48-8.92-11.72-14.14-20.63-11.66-8.92,2.48-14.14,11.71-11.66,20.63.27.98.63,1.92,1.06,2.81ZM173.12,79.05c1.36-.1,2.68-.33,3.95-.66l27.18-4.53c10-1.67,17.07-10.68,16.31-20.79-.75-10.08-9.08-17.93-19.18-18.09l-27.6-.43c-1.3-.13-2.64-.16-4-.06-12.31.92-21.54,11.65-20.61,23.95.92,12.3,11.65,21.53,23.95,20.61Z"/><path class="cls-4" d="M28.32,29.03c-.96,0-1.91-.36-2.64-1.09-1.46-1.46-1.47-3.83-.01-5.29,9.09-9.13,21.18-14.69,34.05-15.66,2.14-.16,4.33-.19,6.51-.09l129.89-1.75s.03,0,.05,0c2.04,0,3.71,1.64,3.74,3.69.03,2.07-1.62,3.76-3.69,3.79l-130,1.75c-.08,0-.15,0-.23,0-1.92-.09-3.84-.07-5.71.07-11.07.83-21.48,5.61-29.3,13.47-.73.73-1.69,1.1-2.65,1.1Z"/><path class="cls-7" d="M245.92,51.66l-2.42-6.16-2.42-6.16c-1.2-3.06-4.66-4.57-7.72-3.37-3.06,1.21-4.57,4.66-3.37,7.72l2.42,6.16,2.42,6.16c1.2,3.06,4.66,4.57,7.72,3.37,3.06-1.21,4.57-4.66,3.37-7.72Z"/><path class="cls-7" d="M18.28,240.65l8.24-.63c5.58-.43,9.75-5.3,9.32-10.87h0c-.43-5.58-5.3-9.75-10.87-9.32l-8.19.63,1.5,20.2Z"/><path class="cls-7" d="M20.16,265.65l-1.12-15.04,8.19-.63c5.58-.43,10.44,3.74,10.87,9.32h0c.18,2.33-.45,4.54-1.64,6.35h-16.31Z"/></svg>