<?xml version="1.0" encoding="UTF-8"?><svg xmlns="http://www.w3.org/2000/svg" xmlns:xlink="http://www.w3.org/1999/xlink" viewBox="0 0 410.59 265.65"><defs><style>.cls-1{mix-blend-mode:overlay;}.cls-1,.cls-2{fill:#c4d8ff;}.cls-3{fill:#ff984e;}.cls-4{fill:#ffc44e;}.cls-5{fill:url(#linear-gradient);}.cls-6{fill:#008c46;}.cls-7{fill:#000714;}.cls-8{fill:#00bf5f;}.cls-9{isolation:isolate;}.cls-10{fill:#fcf7f1;}.cls-11{fill:#00ec76;}.cls-12{fill:#fd5972;}.cls-13{fill:#fff;}.cls-14{fill:#00d86c;}.cls-15{fill:#00763b;}.cls-16{fill:#ffdee3;}</style><linearGradient id="linear-gradient" x1="1250.63" y1="132.64" x2="1250.63" y2="249.21" gradientTransform="translate(1584.43) rotate(-180) scale(1 -1)" gradientUnits="userSpaceOnUse"><stop offset="0" stop-color="#ffc44e"/><stop offset="1" stop-color="#ff6c4e"/></linearGradient></defs><g class="cls-9"><g id="ILL-BG"><path class="cls-6" d="M25.13,265.65L10.42,67.45c-3.17-23.34,12.37-45.12,35.47-49.71l9.11-1.81c8.66-1.72,17.17,3.59,19.42,12.13l39.42,237.59H25.13Z"/><path class="cls-15" d="M18.77,179.97l8.24-.63c5.58-.43,9.75-5.3,9.32-10.87h0c-.43-5.58-5.3-9.75-10.87-9.32l-8.19.63,1.5,20.2Z"/><path class="cls-15" d="M21.03,210.31l8.24-.63c5.58-.43,9.75-5.3,9.32-10.87h0c-.43-5.58-5.3-9.75-10.87-9.32l-8.19.63,1.5,20.2Z"/><path class="cls-15" d="M14.28,119.47l8.24-.63c5.58-.43,9.75-5.3,9.32-10.87h0c-.43-5.58-5.3-9.75-10.87-9.32l-8.19.63,1.5,20.2Z"/><path class="cls-15" d="M16.52,149.64l8.24-.63c5.58-.43,9.75-5.3,9.32-10.87h0c-.43-5.58-5.3-9.75-10.87-9.32l-8.19.63,1.5,20.2Z"/><path class="cls-10" d="M244.91,135.7c-.62-2.72-4.49-2.72-5.11,0l-3,13.14h11.11l-3-13.14Z"/><path class="cls-10" d="M225.91,135.7l-3,13.14h11.11l-3-13.14c-.62-2.72-4.49-2.72-5.11,0Z"/><path class="cls-10" d="M212.02,135.7l-3,13.14h11.11l-3-13.14c-.62-2.72-4.49-2.72-5.11,0Z"/><path class="cls-10" d="M198.14,135.7l-3,13.14h11.11l-3-13.14c-.62-2.72-4.49-2.72-5.11,0Z"/><path class="cls-10" d="M184.25,135.7l-3,13.14h11.11l-3-13.14c-.62-2.72-4.49-2.72-5.11,0Z"/><path class="cls-10" d="M170.36,135.7l-3,13.14h11.11l-3-13.14c-.62-2.72-4.49-2.72-5.11,0Z"/><path class="cls-10" d="M156.48,135.7l-3,13.14h11.11l-3-13.14c-.62-2.72-4.49-2.72-5.11,0Z"/><path class="cls-10" d="M142.59,135.7l-3,13.14h11.11l-3-13.14c-.62-2.72-4.49-2.72-5.11,0Z"/><path class="cls-8" d="M253.48,156.07c0,11.55-9.36,20.91-20.91,20.91H91.04c-.05,0-.1,0-.15,0-7.31.04-14.62-2.72-20.2-8.3l-44.24-44.24c-11.07-11.07-11.07-29.01,0-40.07h0l104.19,62.13c2.35,1.4,5.04,2.14,7.78,2.14h111.31c2.06,0,3.73,1.67,3.73,3.73v3.69Z"/><path class="cls-10" d="M230.97,99.45l6.88,18.23c1.18,3.13,5.79,2.5,6.09-.84l1.7-19.43-14.67,2.04Z"/><path class="cls-10" d="M115.24,134.74c1.18,3.13,5.79,2.5,6.09-.84l1.7-19.43-14.67,2.04,6.88,18.23Z"/><path class="cls-10" d="M132.76,132.3c1.18,3.13,5.79,2.5,6.09-.84l1.7-19.43-14.67,2.04,6.88,18.23Z"/><path class="cls-10" d="M150.27,129.86c1.18,3.13,5.79,2.5,6.09-.84l1.7-19.43-14.67,2.04,6.88,18.23Z"/><path class="cls-10" d="M167.79,127.43c1.18,3.13,5.79,2.5,6.09-.84l1.7-19.43-14.67,2.04,6.88,18.23Z"/><path class="cls-10" d="M185.3,124.99c1.18,3.13,5.79,2.5,6.09-.84l1.7-19.43-14.67,2.04,6.88,18.23Z"/><path class="cls-10" d="M202.82,122.55c1.18,3.13,5.79,2.5,6.09-.84l1.7-19.43-14.67,2.04,6.88,18.23Z"/><path class="cls-10" d="M220.34,120.11c1.18,3.13,5.79,2.5,6.09-.84l1.7-19.43-14.67,2.04,6.88,18.23Z"/><path class="cls-8" d="M174.79,34.48c-12.31.92-21.54,11.65-20.61,23.95.92,12.3,11.65,21.53,23.95,20.61,1.36-.1,2.68-.33,3.95-.66l27.18-4.53c10-1.67,17.07-10.68,16.31-20.79-.75-10.08-9.08-17.93-19.18-18.09l-27.6-.43c-1.3-.13-2.64-.16-4-.06Z"/><path class="cls-8" d="M117.22,30.52c-8.92,2.48-14.14,11.71-11.66,20.63.27.98.63,1.92,1.06,2.81l7.31,19.33c2.69,7.11,10.36,11,17.68,8.96,7.31-2.03,11.86-9.3,10.5-16.76l-3.72-20.36c-.1-.98-.27-1.97-.54-2.95-2.48-8.92-11.72-14.14-20.63-11.66Z"/><path class="cls-14" d="M72.78,3.44l127.44-1.72c33.57-.45,61.7,25.3,64.21,58.78l.99,13.2c.94,12.56-8.05,23.67-20.53,25.39l-163.27,22.36c-2.38.47-4.82.81-7.3,1-32.84,2.46-61.45-22.16-63.91-55C7.96,34.61,32.59,6,65.42,3.54c2.48-.19,4.94-.21,7.36-.1ZM106.62,53.96l7.31,19.33c2.69,7.11,10.36,11,17.68,8.96,7.31-2.03,11.86-9.3,10.5-16.76l-3.72-20.36c-.1-.98-.27-1.97-.54-2.95-2.48-8.92-11.72-14.14-20.63-11.66-8.92,2.48-14.14,11.71-11.66,20.63.27.98.63,1.92,1.06,2.81ZM178.12,79.05c1.36-.1,2.68-.33,3.95-.66l27.18-4.53c10-1.67,17.07-10.68,16.31-20.79-.75-10.08-9.08-17.93-19.18-18.09l-27.6-.43c-1.3-.13-2.64-.16-4-.06-12.31.92-21.54,11.65-20.61,23.95.92,12.3,11.65,21.53,23.95,20.61Z"/><path class="cls-11" d="M33.32,29.03c-.96,0-1.91-.36-2.64-1.09-1.46-1.46-1.47-3.83-.01-5.29,9.09-9.13,21.18-14.69,34.05-15.66,2.14-.16,4.33-.19,6.51-.09l129.89-1.75s.03,0,.05,0c2.04,0,3.71,1.64,3.74,3.69.03,2.07-1.62,3.76-3.69,3.79l-130,1.75c-.08,0-.15,0-.23,0-1.92-.09-3.84-.07-5.71.07-11.07.83-21.48,5.61-29.3,13.47-.73.73-1.69,1.1-2.65,1.1Z"/><path class="cls-15" d="M250.92,51.66l-2.42-6.16-2.42-6.16c-1.2-3.06-4.66-4.57-7.72-3.37-3.06,1.21-4.57,4.66-3.37,7.72l2.42,6.16,2.42,6.16c1.2,3.06,4.66,4.57,7.72,3.37,3.06-1.21,4.57-4.66,3.37-7.72Z"/><path class="cls-15" d="M23.28,240.65l8.24-.63c5.58-.43,9.75-5.3,9.32-10.87h0c-.43-5.58-5.3-9.75-10.87-9.32l-8.19.63,1.5,20.2Z"/><path class="cls-15" d="M25.16,265.65l-1.12-15.04,8.19-.63c5.58-.43,10.44,3.74,10.87,9.32h0c.18,2.33-.45,4.54-1.64,6.35h-16.31Z"/><rect class="cls-2" x="301.54" y="251.96" width="64.55" height="13.69" rx="5.93" ry="5.93" transform="translate(667.63 517.61) rotate(180)"/><path class="cls-2" d="M333.92,258.8c16.79,0,31.02-12.34,33.4-28.96l11.03-77.08c1.43-5.31-2.57-10.53-8.07-10.53h-72.92c-5.5,0-9.5,5.22-8.07,10.53l11.25,77.17c2.42,16.58,16.63,28.87,33.39,28.87h0Z"/><rect class="cls-2" x="281.49" y="123.19" width="104.64" height="38.72" rx="6" ry="6" transform="translate(667.63 285.1) rotate(-180)"/><path class="cls-3" d="M395.07,164.97c16.2-16.2,16.2-42.47,0-58.68-16.2-16.2-42.47-16.2-58.68,0l58.68,58.68Z"/><path class="cls-13" d="M368.72,138.62h26.13s0-5.98,0-5.98h-21.9s15.49-15.49,15.49-15.49l-4.23-4.23-15.59,15.59v-22.11s-5.98,0-5.98,0v26.13s-21.37-21.37-21.37-21.37c13.51-13.51,35.42-13.51,48.94,0,13.51,13.51,13.51,35.42,0,48.94l-21.48-21.48Z"/><path class="cls-4" d="M386.32,156.22c11.37-11.37,11.37-29.81,0-41.18-11.37-11.37-29.81-11.37-41.18,0l41.18,41.18Z"/><polygon class="cls-13" points="368.61 106.41 368.61 128.52 384.21 112.93 388.43 117.16 372.95 132.64 394.85 132.64 394.85 138.62 368.72 138.62 365.73 135.63 365.73 135.63 365.62 135.53 365.62 135.53 362.63 132.54 362.63 106.41 368.61 106.41"/><rect class="cls-13" x="365.68" y="135.5" height=".15"/><path class="cls-16" d="M293.17,56.34h10.43v77.11c0,1.99-1.61,3.6-3.6,3.6h-3.23c-1.99,0-3.6-1.61-3.6-3.6V56.34h0Z" transform="translate(611.85 85.51) rotate(160)"/><polygon class="cls-12" points="284.46 73.7 295.57 73.7 292 63.9 280.9 63.9 284.46 73.7"/><polygon class="cls-12" points="291.05 91.81 302.16 91.81 298.59 82.01 287.49 82.01 291.05 91.81"/><polygon class="cls-12" points="297.65 109.92 308.75 109.92 305.18 100.11 294.08 100.11 297.65 109.92"/><polygon class="cls-12" points="304.24 128.02 315.34 128.02 311.77 118.22 300.67 118.22 304.24 128.02"/><path class="cls-1" d="M288.42,123.12h90.79c3.83,0,6.93,3.1,6.93,6.93v24.87c0,3.83-3.1,6.93-6.93,6.93h-2.17s-9.72,67.93-9.72,67.93c-1.31,9.14-6.2,16.97-13.13,22.18h5.06c3.78,0,6.85,3.06,6.85,6.85h0c0,3.78-3.07,6.85-6.85,6.85h-50.85c-3.78,0-6.85-3.06-6.85-6.85h0c0-3.78,3.06-6.85,6.85-6.85h5.25c-6.9-5.19-11.79-12.99-13.12-22.09l-9.92-68.02h-2.2c-3.83,0-6.93-3.1-6.93-6.93v-24.87c0-3.83,3.1-6.93,6.93-6.93Z"/><path class="cls-5" d="M372.95,132.64l-10.65,87.61c-2.02,16.62-14.12,28.96-28.39,28.96h0c-14.24,0-26.32-12.29-28.38-28.87l-10.87-87.7h78.29Z"/><rect class="cls-13" x="199.79" y="35.18" width="9.33" height="9.32" transform="translate(-3.54 28.52) rotate(-7.91)"/><rect class="cls-13" x="207.76" y="24.67" width="9.32" height="9.32" transform="translate(-2.01 29.51) rotate(-7.91)"/><rect class="cls-13" x="226.21" y="22.1" width="9.33" height="9.32" transform="translate(-1.49 32.03) rotate(-7.91)"/><rect class="cls-13" x="218.27" y="32.61" width="9.32" height="9.32" transform="translate(-3.01 31.03) rotate(-7.91)"/><rect class="cls-13" x="210.32" y="43.12" width="9.32" height="9.33" transform="translate(-4.53 30.04) rotate(-7.91)"/><rect class="cls-13" x="191.85" y="45.69" width="9.32" height="9.33" transform="translate(-5.06 27.52) rotate(-7.91)"/><rect class="cls-13" x="107.44" y="48.01" width="9.33" height="9.32" transform="translate(-6.18 15.93) rotate(-7.91)"/><rect class="cls-13" x="115.41" y="37.5" width="9.32" height="9.32" transform="translate(-4.66 16.92) rotate(-7.91)"/><rect class="cls-13" x="96.93" y="40.07" width="9.32" height="9.32" transform="translate(-5.19 14.41) rotate(-7.91)"/><polygon class="cls-13" points="88.37 51.27 89.66 60.49 89.83 60.47 98.9 59.21 97.62 49.98 88.37 51.27"/><polygon class="cls-13" points="80.43 61.78 81.7 70.95 90.93 69.67 91.11 69.64 89.83 60.47 89.66 60.49 80.43 61.78"/><rect class="cls-13" x="99.65" y="58.51" width="9.16" height="9.26" transform="translate(-7.7 14.95) rotate(-7.91)"/><rect class="cls-7" x="2.04" y="53.27" width="9.32" height="9.32" transform="translate(-7.91 1.47) rotate(-7.91)"/><path class="cls-7" d="M252.03,9.7l1.28,9.25,1.28,9.23-9.23,1.28,1.28,9.23-9.23,1.28,1.28,9.25-9.25,1.28,1.28,9.23-9.23,1.28-9.23,1.28-9.25,1.28-9.23,1.28-9.25,1.28-9.23,1.28-1.28-9.23-9.23,1.28-1.28-9.25-9.25,1.28-1.28-9.23-1.28-9.23-18.47,2.57,1.28,9.23,1.28,9.23-9.23,1.28,1.28,9.25-9.23,1.28,1.27,9.17-9.25,1.28-9.23,1.28-9.25,1.28-9.23,1.28-9.23,1.28-9.25,1.28-9.23,1.28-1.27-9.17-9.23,1.28-1.28-9.25-9.25,1.28-1.28-9.23-9.23,1.28-1.28-9.23-11.81,1.72-1.28-9.25L252.03,9.7ZM90.93,69.67l.18-.02-1.27-9.17,9.07-1.26.16-.02,1.27,9.17,9.07-1.26-1.27-9.17,9.25-1.28-1.28-9.23,9.23-1.28-1.28-9.23-9.23,1.28,1.28,9.23-9.25,1.28-1.28-9.23-9.23,1.28,1.28,9.23-9.25,1.28,1.28,9.23-9.23,1.28,1.27,9.17,9.23-1.28ZM201.76,54.34l-1.28-9.25,9.25-1.28,1.28,9.25,9.23-1.28-1.28-9.25,9.23-1.28-1.28-9.23,9.25-1.28-1.28-9.23-9.25,1.28,1.28,9.23-9.23,1.28-1.28-9.23-9.23,1.28,1.28,9.23-9.25,1.28,1.28,9.23-9.23,1.28,1.28,9.25,9.23-1.28Z"/><polygon class="cls-7" points="97.62 49.98 98.9 59.21 99.06 59.19 108.13 57.93 106.85 48.7 97.62 49.98"/><rect class="cls-7" x="209.04" y="33.9" width="9.32" height="9.32" transform="translate(-3.27 29.78) rotate(-7.91)"/></g></g></svg>