<?xml version="1.0" encoding="iso-8859-1"?>
<svg fill="#000000" version="1.1" id="Capa_1" xmlns="http://www.w3.org/2000/svg" xmlns:xlink="http://www.w3.org/1999/xlink"
	 width="800px" height="800px" viewBox="0 0 898.199 898.199"
	 xml:space="preserve">
<g>
	<g>
		<circle cx="450.301" cy="711.2" r="93.4"/>
		<path d="M716.801,463.8C682.199,429.199,641.9,402,597,383.1c-46.5-19.7-95.9-29.7-146.699-29.7c-52,0-102.401,10.4-149.801,30.9
			c-45.7,19.8-86.5,48.1-121.3,84.1l115,111.2c41.3-42.7,96.601-66.2,156-66.2c57.9,0,112.4,22.601,153.4,63.5L716.801,463.8z"/>
		<path d="M450.301,93.6C364.4,93.6,281,110.399,202.4,143.7C126.6,175.8,58.5,221.7,0,280.1l113.1,113.1
			c43.8-43.8,94.8-78.2,151.5-102.2c58.7-24.8,121.1-37.4,185.5-37.4c126.5,0,245.6,49,335.5,138l112.6-113.7
			c-58.1-57.7-126-103.1-201.398-134.8C618.699,110.3,535.699,93.6,450.301,93.6z"/>
	</g>
</g>
</svg>
