<?xml version="1.0" encoding="UTF-8"?><svg id="Layer_1" xmlns="http://www.w3.org/2000/svg" xmlns:xlink="http://www.w3.org/1999/xlink" viewBox="0 0 1920 240"><defs><style>.cls-1{fill:url(#linear-gradient);}.cls-1,.cls-2{stroke-width:0px;}.cls-2{fill:#fff;}</style><linearGradient id="linear-gradient" x1="1386.14" y1="1275.02" x2="1164.05" y2="1146.8" gradientTransform="translate(1395.09 1395.09) rotate(-90) scale(1 -1)" gradientUnits="userSpaceOnUse"><stop offset="0" stop-color="#00d5ff"/><stop offset=".11" stop-color="#1facff"/><stop offset=".28" stop-color="#4978ff"/><stop offset=".44" stop-color="#6c4dff"/><stop offset=".6" stop-color="#872bff"/><stop offset=".75" stop-color="#9a13ff"/><stop offset=".89" stop-color="#a505ff"/><stop offset="1" stop-color="#a0f"/></linearGradient></defs><path class="cls-1" d="m184.74,107.91l20.38,11.76-21.5,12.42-20.38-11.76,21.5-12.42ZM20,66.74v94.79s82.1,47.39,82.1,47.39l51.52-29.75-20.38-11.76-31.14,17.98-61.71-35.62v-71.26s61.7-35.63,61.7-35.63l30.94,17.86,30.77,17.76,20.38,11.76,82.31,47.51-20.66,11.93,20.38,11.76,30.85-17.82v-35.63s-20.39-11.76-20.39-11.76v23.86s-61.93-35.75-61.93-35.75l-20.38-11.76-10.18-5.88-40.96-23.64h0s-41.14-23.74-41.14-23.74L20,66.74Zm71.62,53.11l92.56,53.43h0s43.63,25.19,43.63,25.19l38.46,22.2,82.09-47.4v-94.79s-82.1-47.39-82.1-47.39l-51.52,29.75,20.38,11.76,31.14-17.98,61.71,35.62v71.26s-61.7,35.63-61.7,35.63l-28.27-16.32h0s-33.44-19.3-33.44-19.3l-20.38-11.76-82.37-47.55,20.66-11.93-20.38-11.76-30.85,17.82v35.63s20.39,11.76,20.39,11.76v-23.86Z"/><path class="cls-2" d="m491.05,42.72h58.51c14.27,0,26.13,4.64,35.55,13.91,9.42,9.27,14.13,20.83,14.13,34.66s-4.71,25.39-14.13,34.67-21.27,13.91-35.55,13.91h-41.95v57.41h-16.56V42.72Zm58.51,15.46h-41.95v66.24h41.95c10.01,0,18.03-3.01,24.07-9.05,6.04-6.04,9.06-14.06,9.06-24.07s-3.02-18.03-9.06-24.07c-6.04-6.03-14.06-9.05-24.07-9.05Z"/><path class="cls-2" d="m759.87,63.69c15.46,15.46,23.18,34.22,23.18,56.31s-7.73,40.85-23.18,56.3c-15.45,15.45-34.22,23.18-56.3,23.18s-40.85-7.73-56.31-23.18c-15.45-15.45-23.18-34.22-23.18-56.3s7.73-40.85,23.18-56.31c15.46-15.45,34.22-23.18,56.31-23.18s40.85,7.73,56.3,23.18Zm-101.01,10.71c-12.15,12.3-18.22,27.49-18.22,45.6s6.07,33.3,18.22,45.59c12.14,12.29,27.05,18.44,44.71,18.44s32.56-6.15,44.71-18.44c12.14-12.29,18.21-27.49,18.21-45.59s-6.07-33.3-18.21-45.6c-12.15-12.28-27.05-18.44-44.71-18.44s-32.57,6.15-44.71,18.44Z"/><path class="cls-2" d="m940.37,197.27l-40.85-129.17-40.85,129.17h-16.56l-50.78-154.55h17.66l40.84,129.17,41.96-129.17h15.45l41.95,129.17,40.85-129.17h17.66l-50.78,154.55h-16.56Z"/><path class="cls-2" d="m1169.72,42.72h61.82c13.69,0,25.02,4.41,34,13.25,8.98,8.83,13.47,19.87,13.47,33.12,0,6.62-1.11,12.66-3.31,18.11-2.21,5.44-4.86,9.71-7.95,12.81-3.09,3.09-6.22,5.7-9.39,7.83-3.17,2.14-5.85,3.57-8.06,4.31l-3.31,1.11,36.43,64.03h-18.76l-34.22-61.82h-44.16v61.82h-16.56V42.72Zm61.82,15.46h-45.26v61.82h45.26c9.42,0,16.93-2.8,22.52-8.39s8.39-13.1,8.39-22.52-2.8-16.93-8.39-22.53c-5.59-5.59-13.1-8.39-22.52-8.39Z"/><path class="cls-2" d="m1701.76,42.72h33.11v154.55h-28.7l-76.17-98.25v98.25h-33.12V42.72h28.71l76.17,98.25V42.72Z"/><path class="cls-2" d="m1468.16,42.72l38.24,66.24,38.24-66.24h35.68l-57.36,99.36v55.2h-33.12v-55.2l-57.36-99.36h35.68Z"/><path class="cls-2" d="m1420.5,126.84c-5.23-6.62-11.59-11.37-19.1-14.24-7.5-2.87-14.98-5.37-22.41-7.51-7.43-2.13-13.76-4.78-18.99-7.95-5.22-3.16-7.83-7.32-7.83-12.48,0-4.56,1.9-8.46,5.74-11.7,3.83-3.24,8.9-4.86,15.24-4.86,5.29,0,10.41,1.22,15.34,3.65,4.93,2.43,8.17,4.38,9.71,5.85,1.55,1.47,2.75,2.73,3.64,3.75l13.02-22.55,1.98-3.43c-.93-.78-1.94-1.6-3.19-2.5-2.87-2.06-6.18-4.08-9.94-6.07-3.76-1.98-8.58-3.71-14.46-5.19-5.89-1.47-12-2.21-18.33-2.21-16.05,0-29.07,4.42-39.08,13.25-10.01,8.83-15.02,19.51-15.02,32.01,0,10.16,2.61,18.55,7.84,25.17,5.22,6.62,11.55,11.37,18.99,14.24,7.43,2.87,14.9,5.37,22.41,7.5,7.5,2.14,13.87,4.79,19.1,7.95,5.22,3.17,7.83,7.32,7.83,12.48,0,5.74-2.25,10.49-6.73,14.24-4.49,3.76-10.71,5.64-18.66,5.64-6.92,0-13.55-1.55-19.87-4.64-6.33-3.09-10.42-5.55-12.25-7.39-1.84-1.84-3.28-3.35-4.31-4.53h0l-13,22.52-1.64,2.83c1.22,1.1,2.66,2.28,4.37,3.57,3.31,2.5,7.14,4.97,11.48,7.4,4.34,2.43,9.86,4.53,16.56,6.29,6.7,1.77,13.65,2.65,20.86,2.65,18.26,0,32.57-4.53,42.95-13.58,10.37-9.06,15.57-20.72,15.57-35,0-10.16-2.62-18.55-7.84-25.17Z"/><polygon class="cls-2" points="1032.55 42.72 1032.55 197.27 1140.74 197.27 1140.74 181.82 1049.11 181.82 1049.11 124.41 1120.87 124.41 1120.87 108.96 1049.11 108.96 1049.11 58.18 1129.6 58.18 1138.52 42.72 1032.55 42.72"/><path class="cls-2" d="m1884.74,148.7l-1.77,2.2c-1.18,1.62-3.06,3.5-5.63,5.63-2.58,2.14-5.56,4.28-8.94,6.41-3.39,2.13-7.65,3.97-12.81,5.52-5.16,1.55-10.53,2.32-16.12,2.32-14.43,0-26.5-4.86-36.21-14.57-9.71-9.71-14.57-21.78-14.57-36.21s4.86-26.5,14.57-36.21c9.71-9.71,21.78-14.57,36.21-14.57,5.29,0,10.45.81,15.45,2.43,5,1.62,9.05,3.39,12.15,5.3,3.09,1.92,5.96,4.13,8.61,6.62,2.65,2.5,4.34,4.27,5.08,5.3.73,1.03,1.32,1.83,1.76,2.42l1.79-3.1,13.98-24.22c-1.39-1.38-3.06-2.9-5.06-4.57-3.61-3.01-7.77-6.03-12.48-9.05-4.71-3.01-10.74-5.59-18.11-7.73-7.36-2.13-15.09-3.2-23.18-3.2-23.56,0-43.43,7.88-59.62,23.63-16.19,15.75-24.29,34.74-24.29,56.96s8.1,41.21,24.29,56.96c16.19,15.75,36.06,23.63,59.62,23.63,8.09,0,15.9-1.1,23.4-3.31,7.51-2.21,13.58-4.67,18.22-7.4,4.64-2.73,8.97-5.85,13.02-9.39,2.55-2.23,4.47-3.98,5.88-5.36l-15.26-26.43h0Z"/></svg>